<?xml version="1.0" standalone="no"?>
<!DOCTYPE svg PUBLIC "-//W3C//DTD SVG 20010904//EN"
 "http://www.w3.org/TR/2001/REC-SVG-20010904/DTD/svg10.dtd">
<svg version="1.0" xmlns="http://www.w3.org/2000/svg"
 width="35.000000pt" height="36.000000pt" viewBox="0 0 1200.000000 1251.000000"
 preserveAspectRatio="xMidYMid meet">
<metadata>
Created by potrace 1.16, written by Peter Selinger 2001-2019
</metadata>
<g transform="translate(0.000000,1251.000000) scale(0.100000,-0.100000)"
fill="#6d757d" stroke="none">
<path d="M5344 11400 c-558 -956 -652 -1111 -669 -1107 -11 2 -544 235 -1184
516 -640 281 -1165 510 -1168 508 -3 -4 239 -2460 251 -2543 l4 -31 -1256
-273 c-692 -150 -1261 -277 -1265 -280 -5 -4 376 -439 846 -966 470 -528 856
-962 858 -965 2 -3 -382 -440 -854 -969 -472 -530 -854 -967 -850 -970 4 -4
573 -130 1265 -281 l1256 -273 -4 -30 c-12 -82 -253 -2540 -250 -2544 2 -2
533 229 1180 513 647 284 1180 515 1186 513 5 -1 300 -500 655 -1108 355 -608
649 -1106 654 -1108 5 -2 280 462 612 1030 331 568 624 1070 651 1114 l47 82
1182 -519 c650 -286 1184 -518 1186 -516 3 4 -239 2462 -251 2543 l-4 30 1256
274 c692 150 1261 276 1265 280 5 4 -378 441 -850 971 -472 529 -857 964 -856
967 1 2 387 436 858 964 470 529 852 965 848 969 -6 5 -2247 497 -2465 540
-56 11 -56 12 -52 43 11 75 253 2540 250 2544 -2 2 -528 -227 -1167 -509 -640
-282 -1174 -513 -1186 -513 -19 -1 -112 154 -668 1104 -355 608 -649 1106
-654 1108 -5 2 -300 -497 -657 -1108z m-1631 -1704 c86 -53 176 -107 200 -120
331 -185 476 -260 659 -342 56 -25 117 -52 133 -59 162 -74 462 -176 657 -224
274 -68 370 -80 623 -77 227 3 335 17 571 75 572 139 1357 509 2120 998 21 13
20 11 -8 -149 -15 -90 -51 -307 -79 -483 -61 -392 -57 -362 -63 -410 -100
-737 -136 -1121 -136 -1440 -1 -301 21 -381 156 -589 244 -372 775 -975 1656
-1880 86 -89 155 -162 155 -162 -1 -1 -26 -5 -56 -8 -30 -4 -64 -9 -75 -11
-12 -2 -41 -7 -65 -9 -91 -12 -519 -79 -826 -131 -908 -153 -1503 -300 -1780
-437 -62 -31 -98 -59 -160 -122 -242 -247 -638 -921 -1172 -1995 -177 -355
-228 -451 -234 -435 -457 1103 -930 1927 -1336 2326 -103 101 -142 133 -241
199 -271 178 -837 358 -1459 463 -18 4 -47 8 -64 11 -57 10 -423 64 -474 70
-27 3 -84 10 -125 15 -41 6 -97 12 -125 15 -27 3 -93 9 -145 15 -52 5 -138 12
-190 16 -52 4 -116 10 -142 13 l-46 6 96 81 c554 462 1094 1045 1408 1519 339
511 449 896 448 1570 -1 550 -90 1194 -250 1801 -19 73 -34 136 -34 142 0 6
55 -26 123 -72 67 -46 193 -127 280 -180z"/>
<path d="M3990 8986 c0 -8 6 -45 14 -83 21 -100 66 -393 80 -518 3 -27 11 -99
18 -160 8 -68 13 -249 13 -475 0 -401 -8 -489 -65 -726 -113 -472 -474 -1008
-1101 -1637 -172 -172 -203 -208 -185 -211 11 -3 82 -12 156 -21 221 -28 404
-60 725 -130 332 -71 729 -213 956 -340 204 -115 394 -286 590 -532 156 -195
377 -529 509 -768 18 -33 57 -105 88 -160 30 -55 88 -167 129 -250 41 -82 78
-151 82 -153 5 -2 12 10 15 25 12 45 119 298 185 433 232 480 490 846 794
1127 286 266 694 468 1220 608 117 30 369 84 467 99 188 29 507 66 570 66 8 0
-71 87 -176 193 -504 509 -848 960 -1040 1362 -97 202 -133 326 -171 580 -26
176 -23 615 6 865 27 232 70 495 112 678 17 74 28 136 25 140 -3 3 -117 -50
-254 -118 -136 -67 -254 -126 -263 -130 -8 -5 -76 -34 -150 -65 -386 -165
-734 -274 -1044 -327 -103 -17 -170 -22 -325 -22 -208 0 -326 15 -550 69 -387
94 -923 318 -1360 569 -51 29 -70 32 -70 12z m845 -922 c203 -97 459 -171 730
-211 171 -25 648 -25 820 0 359 54 661 144 934 281 86 44 111 53 107 39 -11
-37 -46 -252 -58 -358 -13 -122 -17 -491 -6 -600 10 -98 35 -221 64 -321 90
-313 377 -785 758 -1247 54 -66 96 -120 94 -122 -2 -1 -50 -10 -108 -20 -258
-42 -592 -141 -825 -245 -334 -148 -545 -305 -833 -623 -127 -139 -331 -435
-455 -660 l-60 -108 -17 28 c-144 243 -302 474 -443 648 -114 139 -357 382
-465 464 -218 165 -495 301 -808 396 -139 43 -392 102 -476 111 -32 4 -58 9
-58 13 0 3 46 51 101 106 446 440 705 984 795 1665 32 243 27 593 -11 848 l-6
42 58 -37 c32 -20 107 -60 168 -89z"/>
<path d="M5104 7303 c-4 -549 -151 -967 -515 -1464 -27 -37 -49 -69 -49 -72 0
-2 17 -8 38 -11 115 -21 330 -97 482 -171 118 -58 295 -172 394 -253 179 -147
388 -378 519 -576 l25 -38 18 28 c199 322 411 549 647 693 178 109 423 217
655 291 72 23 132 44 132 46 0 3 -31 42 -69 87 -168 202 -300 400 -387 582
-110 231 -140 392 -130 695 3 107 12 231 20 275 7 44 13 81 11 83 -1 1 -56
-16 -121 -37 -566 -189 -973 -193 -1519 -13 -66 22 -127 43 -135 46 -13 5 -15
-20 -16 -191z"/>
</g>
</svg>
