<?xml version="1.0" standalone="no"?>
<!DOCTYPE svg PUBLIC "-//W3C//DTD SVG 20010904//EN"
 "http://www.w3.org/TR/2001/REC-SVG-20010904/DTD/svg10.dtd">
<svg version="1.0" xmlns="http://www.w3.org/2000/svg"
 width="36.000000pt" height="36.000000pt" viewBox="0 0 48.000000 48.000000"
 preserveAspectRatio="xMidYMid meet">

<g transform="translate(0.000000,50.000000) scale(0.100000,-0.100000)"
fill="#6d757d" stroke="none">
<path d="M298 443 c-31 -38 -52 -79 -54 -105 -2 -28 -28 -78 -42 -78 -4 0 -13
4 -21 9 -19 12 -7 39 23 51 22 8 45 30 31 30 -14 0 -61 -29 -78 -48 -10 -11
-32 -25 -48 -31 -16 -6 -42 -16 -59 -22 -16 -6 -30 -15 -30 -19 0 -16 98 -80
113 -74 10 4 24 -7 41 -33 14 -21 26 -42 26 -48 0 -5 4 -16 9 -24 8 -12 14
-12 38 4 15 9 44 34 63 54 61 64 65 66 105 41 19 -12 35 -26 35 -31 0 -5 7 -9
15 -9 19 0 19 -2 -9 67 -13 32 -34 85 -46 118 -63 172 -76 190 -112 148z m58
-41 c21 -49 84 -234 84 -246 0 -5 -8 -2 -18 7 -33 30 -61 20 -124 -43 -33 -33
-64 -60 -69 -60 -5 0 -14 12 -19 26 -6 15 -20 40 -31 56 l-21 29 25 27 c28 30
107 169 107 190 0 20 31 62 41 56 5 -3 16 -22 25 -42z m-179 -148 c19 -19 11
-37 -29 -67 -25 -19 -26 -19 -67 8 -23 16 -39 31 -36 34 9 8 87 39 103 40 7 1
21 -6 29 -15z"/>
<path d="M315 395 c-16 -88 -58 -209 -81 -232 -27 -27 -29 -40 -10 -65 11 -16
17 -12 62 33 27 28 60 55 73 60 14 6 21 15 18 24 -3 7 -11 40 -17 72 -5 32
-16 78 -24 103 l-14 45 -7 -40z"/>
</g>
</svg>
