<?xml version="1.0" encoding="utf-8" standalone="no"?>
<!DOCTYPE svg PUBLIC "-//W3C//DTD SVG 1.1//EN"
  "http://www.w3.org/Graphics/SVG/1.1/DTD/svg11.dtd">
<svg xmlns:xlink="http://www.w3.org/1999/xlink" width="385.78125pt" height="262.19625pt" viewBox="0 0 385.78125 262.19625" xmlns="http://www.w3.org/2000/svg" version="1.1">
 <metadata>
  <rdf:RDF xmlns:dc="http://purl.org/dc/elements/1.1/" xmlns:cc="http://creativecommons.org/ns#" xmlns:rdf="http://www.w3.org/1999/02/22-rdf-syntax-ns#">
   <cc:Work>
    <dc:type rdf:resource="http://purl.org/dc/dcmitype/StillImage"/>
    <dc:date>2022-06-22T11:50:22.617723</dc:date>
    <dc:format>image/svg+xml</dc:format>
    <dc:creator>
     <cc:Agent>
      <dc:title>Matplotlib v3.5.1, https://matplotlib.org/</dc:title>
     </cc:Agent>
    </dc:creator>
   </cc:Work>
  </rdf:RDF>
 </metadata>
 <defs>
  <style type="text/css">*{stroke-linejoin: round; stroke-linecap: butt}</style>
 </defs>
 <g id="figure_1">
  <g id="patch_1">
   <path d="M 0 262.19625 
L 385.78125 262.19625 
L 385.78125 0 
L 0 0 
L 0 262.19625 
z
" style="fill: none"/>
  </g>
  <g id="axes_1">
   <g id="patch_2">
    <path d="M 43.78125 224.64 
L 378.58125 224.64 
L 378.58125 7.2 
L 43.78125 7.2 
z
" style="fill: #ffffff"/>
   </g>
   <g id="matplotlib.axis_1">
    <g id="xtick_1">
     <g id="line2d_1">
      <defs>
       <path id="m191d0bde38" d="M 0 0 
L 0 3.5 
" style="stroke: #000000; stroke-width: 0.8"/>
      </defs>
      <g>
       <use xlink:href="#m191d0bde38" x="58.999432" y="224.64" style="stroke: #000000; stroke-width: 0.8"/>
      </g>
     </g>
     <g id="text_1">
      <!-- 0.0 -->
      <g transform="translate(51.047869 239.238437)scale(0.1 -0.1)">
       <defs>
        <path id="DejaVuSans-30" d="M 2034 4250 
Q 1547 4250 1301 3770 
Q 1056 3291 1056 2328 
Q 1056 1369 1301 889 
Q 1547 409 2034 409 
Q 2525 409 2770 889 
Q 3016 1369 3016 2328 
Q 3016 3291 2770 3770 
Q 2525 4250 2034 4250 
z
M 2034 4750 
Q 2819 4750 3233 4129 
Q 3647 3509 3647 2328 
Q 3647 1150 3233 529 
Q 2819 -91 2034 -91 
Q 1250 -91 836 529 
Q 422 1150 422 2328 
Q 422 3509 836 4129 
Q 1250 4750 2034 4750 
z
" transform="scale(0.015625)"/>
        <path id="DejaVuSans-2e" d="M 684 794 
L 1344 794 
L 1344 0 
L 684 0 
L 684 794 
z
" transform="scale(0.015625)"/>
       </defs>
       <use xlink:href="#DejaVuSans-30"/>
       <use xlink:href="#DejaVuSans-2e" x="63.623047"/>
       <use xlink:href="#DejaVuSans-30" x="95.410156"/>
      </g>
     </g>
    </g>
    <g id="xtick_2">
     <g id="line2d_2">
      <g>
       <use xlink:href="#m191d0bde38" x="119.872159" y="224.64" style="stroke: #000000; stroke-width: 0.8"/>
      </g>
     </g>
     <g id="text_2">
      <!-- 0.2 -->
      <g transform="translate(111.920597 239.238437)scale(0.1 -0.1)">
       <defs>
        <path id="DejaVuSans-32" d="M 1228 531 
L 3431 531 
L 3431 0 
L 469 0 
L 469 531 
Q 828 903 1448 1529 
Q 2069 2156 2228 2338 
Q 2531 2678 2651 2914 
Q 2772 3150 2772 3378 
Q 2772 3750 2511 3984 
Q 2250 4219 1831 4219 
Q 1534 4219 1204 4116 
Q 875 4013 500 3803 
L 500 4441 
Q 881 4594 1212 4672 
Q 1544 4750 1819 4750 
Q 2544 4750 2975 4387 
Q 3406 4025 3406 3419 
Q 3406 3131 3298 2873 
Q 3191 2616 2906 2266 
Q 2828 2175 2409 1742 
Q 1991 1309 1228 531 
z
" transform="scale(0.015625)"/>
       </defs>
       <use xlink:href="#DejaVuSans-30"/>
       <use xlink:href="#DejaVuSans-2e" x="63.623047"/>
       <use xlink:href="#DejaVuSans-32" x="95.410156"/>
      </g>
     </g>
    </g>
    <g id="xtick_3">
     <g id="line2d_3">
      <g>
       <use xlink:href="#m191d0bde38" x="180.744886" y="224.64" style="stroke: #000000; stroke-width: 0.8"/>
      </g>
     </g>
     <g id="text_3">
      <!-- 0.4 -->
      <g transform="translate(172.793324 239.238437)scale(0.1 -0.1)">
       <defs>
        <path id="DejaVuSans-34" d="M 2419 4116 
L 825 1625 
L 2419 1625 
L 2419 4116 
z
M 2253 4666 
L 3047 4666 
L 3047 1625 
L 3713 1625 
L 3713 1100 
L 3047 1100 
L 3047 0 
L 2419 0 
L 2419 1100 
L 313 1100 
L 313 1709 
L 2253 4666 
z
" transform="scale(0.015625)"/>
       </defs>
       <use xlink:href="#DejaVuSans-30"/>
       <use xlink:href="#DejaVuSans-2e" x="63.623047"/>
       <use xlink:href="#DejaVuSans-34" x="95.410156"/>
      </g>
     </g>
    </g>
    <g id="xtick_4">
     <g id="line2d_4">
      <g>
       <use xlink:href="#m191d0bde38" x="241.617614" y="224.64" style="stroke: #000000; stroke-width: 0.8"/>
      </g>
     </g>
     <g id="text_4">
      <!-- 0.6 -->
      <g transform="translate(233.666051 239.238437)scale(0.1 -0.1)">
       <defs>
        <path id="DejaVuSans-36" d="M 2113 2584 
Q 1688 2584 1439 2293 
Q 1191 2003 1191 1497 
Q 1191 994 1439 701 
Q 1688 409 2113 409 
Q 2538 409 2786 701 
Q 3034 994 3034 1497 
Q 3034 2003 2786 2293 
Q 2538 2584 2113 2584 
z
M 3366 4563 
L 3366 3988 
Q 3128 4100 2886 4159 
Q 2644 4219 2406 4219 
Q 1781 4219 1451 3797 
Q 1122 3375 1075 2522 
Q 1259 2794 1537 2939 
Q 1816 3084 2150 3084 
Q 2853 3084 3261 2657 
Q 3669 2231 3669 1497 
Q 3669 778 3244 343 
Q 2819 -91 2113 -91 
Q 1303 -91 875 529 
Q 447 1150 447 2328 
Q 447 3434 972 4092 
Q 1497 4750 2381 4750 
Q 2619 4750 2861 4703 
Q 3103 4656 3366 4563 
z
" transform="scale(0.015625)"/>
       </defs>
       <use xlink:href="#DejaVuSans-30"/>
       <use xlink:href="#DejaVuSans-2e" x="63.623047"/>
       <use xlink:href="#DejaVuSans-36" x="95.410156"/>
      </g>
     </g>
    </g>
    <g id="xtick_5">
     <g id="line2d_5">
      <g>
       <use xlink:href="#m191d0bde38" x="302.490341" y="224.64" style="stroke: #000000; stroke-width: 0.8"/>
      </g>
     </g>
     <g id="text_5">
      <!-- 0.8 -->
      <g transform="translate(294.538778 239.238437)scale(0.1 -0.1)">
       <defs>
        <path id="DejaVuSans-38" d="M 2034 2216 
Q 1584 2216 1326 1975 
Q 1069 1734 1069 1313 
Q 1069 891 1326 650 
Q 1584 409 2034 409 
Q 2484 409 2743 651 
Q 3003 894 3003 1313 
Q 3003 1734 2745 1975 
Q 2488 2216 2034 2216 
z
M 1403 2484 
Q 997 2584 770 2862 
Q 544 3141 544 3541 
Q 544 4100 942 4425 
Q 1341 4750 2034 4750 
Q 2731 4750 3128 4425 
Q 3525 4100 3525 3541 
Q 3525 3141 3298 2862 
Q 3072 2584 2669 2484 
Q 3125 2378 3379 2068 
Q 3634 1759 3634 1313 
Q 3634 634 3220 271 
Q 2806 -91 2034 -91 
Q 1263 -91 848 271 
Q 434 634 434 1313 
Q 434 1759 690 2068 
Q 947 2378 1403 2484 
z
M 1172 3481 
Q 1172 3119 1398 2916 
Q 1625 2713 2034 2713 
Q 2441 2713 2670 2916 
Q 2900 3119 2900 3481 
Q 2900 3844 2670 4047 
Q 2441 4250 2034 4250 
Q 1625 4250 1398 4047 
Q 1172 3844 1172 3481 
z
" transform="scale(0.015625)"/>
       </defs>
       <use xlink:href="#DejaVuSans-30"/>
       <use xlink:href="#DejaVuSans-2e" x="63.623047"/>
       <use xlink:href="#DejaVuSans-38" x="95.410156"/>
      </g>
     </g>
    </g>
    <g id="xtick_6">
     <g id="line2d_6">
      <g>
       <use xlink:href="#m191d0bde38" x="363.363068" y="224.64" style="stroke: #000000; stroke-width: 0.8"/>
      </g>
     </g>
     <g id="text_6">
      <!-- 1.0 -->
      <g transform="translate(355.411506 239.238437)scale(0.1 -0.1)">
       <defs>
        <path id="DejaVuSans-31" d="M 794 531 
L 1825 531 
L 1825 4091 
L 703 3866 
L 703 4441 
L 1819 4666 
L 2450 4666 
L 2450 531 
L 3481 531 
L 3481 0 
L 794 0 
L 794 531 
z
" transform="scale(0.015625)"/>
       </defs>
       <use xlink:href="#DejaVuSans-31"/>
       <use xlink:href="#DejaVuSans-2e" x="63.623047"/>
       <use xlink:href="#DejaVuSans-30" x="95.410156"/>
      </g>
     </g>
    </g>
    <g id="text_7">
     <!-- False Positive Rate -->
     <g transform="translate(164.714844 252.916562)scale(0.1 -0.1)">
      <defs>
       <path id="DejaVuSans-46" d="M 628 4666 
L 3309 4666 
L 3309 4134 
L 1259 4134 
L 1259 2759 
L 3109 2759 
L 3109 2228 
L 1259 2228 
L 1259 0 
L 628 0 
L 628 4666 
z
" transform="scale(0.015625)"/>
       <path id="DejaVuSans-61" d="M 2194 1759 
Q 1497 1759 1228 1600 
Q 959 1441 959 1056 
Q 959 750 1161 570 
Q 1363 391 1709 391 
Q 2188 391 2477 730 
Q 2766 1069 2766 1631 
L 2766 1759 
L 2194 1759 
z
M 3341 1997 
L 3341 0 
L 2766 0 
L 2766 531 
Q 2569 213 2275 61 
Q 1981 -91 1556 -91 
Q 1019 -91 701 211 
Q 384 513 384 1019 
Q 384 1609 779 1909 
Q 1175 2209 1959 2209 
L 2766 2209 
L 2766 2266 
Q 2766 2663 2505 2880 
Q 2244 3097 1772 3097 
Q 1472 3097 1187 3025 
Q 903 2953 641 2809 
L 641 3341 
Q 956 3463 1253 3523 
Q 1550 3584 1831 3584 
Q 2591 3584 2966 3190 
Q 3341 2797 3341 1997 
z
" transform="scale(0.015625)"/>
       <path id="DejaVuSans-6c" d="M 603 4863 
L 1178 4863 
L 1178 0 
L 603 0 
L 603 4863 
z
" transform="scale(0.015625)"/>
       <path id="DejaVuSans-73" d="M 2834 3397 
L 2834 2853 
Q 2591 2978 2328 3040 
Q 2066 3103 1784 3103 
Q 1356 3103 1142 2972 
Q 928 2841 928 2578 
Q 928 2378 1081 2264 
Q 1234 2150 1697 2047 
L 1894 2003 
Q 2506 1872 2764 1633 
Q 3022 1394 3022 966 
Q 3022 478 2636 193 
Q 2250 -91 1575 -91 
Q 1294 -91 989 -36 
Q 684 19 347 128 
L 347 722 
Q 666 556 975 473 
Q 1284 391 1588 391 
Q 1994 391 2212 530 
Q 2431 669 2431 922 
Q 2431 1156 2273 1281 
Q 2116 1406 1581 1522 
L 1381 1569 
Q 847 1681 609 1914 
Q 372 2147 372 2553 
Q 372 3047 722 3315 
Q 1072 3584 1716 3584 
Q 2034 3584 2315 3537 
Q 2597 3491 2834 3397 
z
" transform="scale(0.015625)"/>
       <path id="DejaVuSans-65" d="M 3597 1894 
L 3597 1613 
L 953 1613 
Q 991 1019 1311 708 
Q 1631 397 2203 397 
Q 2534 397 2845 478 
Q 3156 559 3463 722 
L 3463 178 
Q 3153 47 2828 -22 
Q 2503 -91 2169 -91 
Q 1331 -91 842 396 
Q 353 884 353 1716 
Q 353 2575 817 3079 
Q 1281 3584 2069 3584 
Q 2775 3584 3186 3129 
Q 3597 2675 3597 1894 
z
M 3022 2063 
Q 3016 2534 2758 2815 
Q 2500 3097 2075 3097 
Q 1594 3097 1305 2825 
Q 1016 2553 972 2059 
L 3022 2063 
z
" transform="scale(0.015625)"/>
       <path id="DejaVuSans-20" transform="scale(0.015625)"/>
       <path id="DejaVuSans-50" d="M 1259 4147 
L 1259 2394 
L 2053 2394 
Q 2494 2394 2734 2622 
Q 2975 2850 2975 3272 
Q 2975 3691 2734 3919 
Q 2494 4147 2053 4147 
L 1259 4147 
z
M 628 4666 
L 2053 4666 
Q 2838 4666 3239 4311 
Q 3641 3956 3641 3272 
Q 3641 2581 3239 2228 
Q 2838 1875 2053 1875 
L 1259 1875 
L 1259 0 
L 628 0 
L 628 4666 
z
" transform="scale(0.015625)"/>
       <path id="DejaVuSans-6f" d="M 1959 3097 
Q 1497 3097 1228 2736 
Q 959 2375 959 1747 
Q 959 1119 1226 758 
Q 1494 397 1959 397 
Q 2419 397 2687 759 
Q 2956 1122 2956 1747 
Q 2956 2369 2687 2733 
Q 2419 3097 1959 3097 
z
M 1959 3584 
Q 2709 3584 3137 3096 
Q 3566 2609 3566 1747 
Q 3566 888 3137 398 
Q 2709 -91 1959 -91 
Q 1206 -91 779 398 
Q 353 888 353 1747 
Q 353 2609 779 3096 
Q 1206 3584 1959 3584 
z
" transform="scale(0.015625)"/>
       <path id="DejaVuSans-69" d="M 603 3500 
L 1178 3500 
L 1178 0 
L 603 0 
L 603 3500 
z
M 603 4863 
L 1178 4863 
L 1178 4134 
L 603 4134 
L 603 4863 
z
" transform="scale(0.015625)"/>
       <path id="DejaVuSans-74" d="M 1172 4494 
L 1172 3500 
L 2356 3500 
L 2356 3053 
L 1172 3053 
L 1172 1153 
Q 1172 725 1289 603 
Q 1406 481 1766 481 
L 2356 481 
L 2356 0 
L 1766 0 
Q 1100 0 847 248 
Q 594 497 594 1153 
L 594 3053 
L 172 3053 
L 172 3500 
L 594 3500 
L 594 4494 
L 1172 4494 
z
" transform="scale(0.015625)"/>
       <path id="DejaVuSans-76" d="M 191 3500 
L 800 3500 
L 1894 563 
L 2988 3500 
L 3597 3500 
L 2284 0 
L 1503 0 
L 191 3500 
z
" transform="scale(0.015625)"/>
       <path id="DejaVuSans-52" d="M 2841 2188 
Q 3044 2119 3236 1894 
Q 3428 1669 3622 1275 
L 4263 0 
L 3584 0 
L 2988 1197 
Q 2756 1666 2539 1819 
Q 2322 1972 1947 1972 
L 1259 1972 
L 1259 0 
L 628 0 
L 628 4666 
L 2053 4666 
Q 2853 4666 3247 4331 
Q 3641 3997 3641 3322 
Q 3641 2881 3436 2590 
Q 3231 2300 2841 2188 
z
M 1259 4147 
L 1259 2491 
L 2053 2491 
Q 2509 2491 2742 2702 
Q 2975 2913 2975 3322 
Q 2975 3731 2742 3939 
Q 2509 4147 2053 4147 
L 1259 4147 
z
" transform="scale(0.015625)"/>
      </defs>
      <use xlink:href="#DejaVuSans-46"/>
      <use xlink:href="#DejaVuSans-61" x="48.394531"/>
      <use xlink:href="#DejaVuSans-6c" x="109.673828"/>
      <use xlink:href="#DejaVuSans-73" x="137.457031"/>
      <use xlink:href="#DejaVuSans-65" x="189.556641"/>
      <use xlink:href="#DejaVuSans-20" x="251.080078"/>
      <use xlink:href="#DejaVuSans-50" x="282.867188"/>
      <use xlink:href="#DejaVuSans-6f" x="339.544922"/>
      <use xlink:href="#DejaVuSans-73" x="400.726562"/>
      <use xlink:href="#DejaVuSans-69" x="452.826172"/>
      <use xlink:href="#DejaVuSans-74" x="480.609375"/>
      <use xlink:href="#DejaVuSans-69" x="519.818359"/>
      <use xlink:href="#DejaVuSans-76" x="547.601562"/>
      <use xlink:href="#DejaVuSans-65" x="606.78125"/>
      <use xlink:href="#DejaVuSans-20" x="668.304688"/>
      <use xlink:href="#DejaVuSans-52" x="700.091797"/>
      <use xlink:href="#DejaVuSans-61" x="767.324219"/>
      <use xlink:href="#DejaVuSans-74" x="828.603516"/>
      <use xlink:href="#DejaVuSans-65" x="867.8125"/>
     </g>
    </g>
   </g>
   <g id="matplotlib.axis_2">
    <g id="ytick_1">
     <g id="line2d_7">
      <defs>
       <path id="mef8c61cfba" d="M 0 0 
L -3.5 0 
" style="stroke: #000000; stroke-width: 0.8"/>
      </defs>
      <g>
       <use xlink:href="#mef8c61cfba" x="43.78125" y="214.756364" style="stroke: #000000; stroke-width: 0.8"/>
      </g>
     </g>
     <g id="text_8">
      <!-- 0.0 -->
      <g transform="translate(20.878125 218.555582)scale(0.1 -0.1)">
       <use xlink:href="#DejaVuSans-30"/>
       <use xlink:href="#DejaVuSans-2e" x="63.623047"/>
       <use xlink:href="#DejaVuSans-30" x="95.410156"/>
      </g>
     </g>
    </g>
    <g id="ytick_2">
     <g id="line2d_8">
      <g>
       <use xlink:href="#mef8c61cfba" x="43.78125" y="175.221818" style="stroke: #000000; stroke-width: 0.8"/>
      </g>
     </g>
     <g id="text_9">
      <!-- 0.2 -->
      <g transform="translate(20.878125 179.021037)scale(0.1 -0.1)">
       <use xlink:href="#DejaVuSans-30"/>
       <use xlink:href="#DejaVuSans-2e" x="63.623047"/>
       <use xlink:href="#DejaVuSans-32" x="95.410156"/>
      </g>
     </g>
    </g>
    <g id="ytick_3">
     <g id="line2d_9">
      <g>
       <use xlink:href="#mef8c61cfba" x="43.78125" y="135.687273" style="stroke: #000000; stroke-width: 0.8"/>
      </g>
     </g>
     <g id="text_10">
      <!-- 0.4 -->
      <g transform="translate(20.878125 139.486491)scale(0.1 -0.1)">
       <use xlink:href="#DejaVuSans-30"/>
       <use xlink:href="#DejaVuSans-2e" x="63.623047"/>
       <use xlink:href="#DejaVuSans-34" x="95.410156"/>
      </g>
     </g>
    </g>
    <g id="ytick_4">
     <g id="line2d_10">
      <g>
       <use xlink:href="#mef8c61cfba" x="43.78125" y="96.152727" style="stroke: #000000; stroke-width: 0.8"/>
      </g>
     </g>
     <g id="text_11">
      <!-- 0.6 -->
      <g transform="translate(20.878125 99.951946)scale(0.1 -0.1)">
       <use xlink:href="#DejaVuSans-30"/>
       <use xlink:href="#DejaVuSans-2e" x="63.623047"/>
       <use xlink:href="#DejaVuSans-36" x="95.410156"/>
      </g>
     </g>
    </g>
    <g id="ytick_5">
     <g id="line2d_11">
      <g>
       <use xlink:href="#mef8c61cfba" x="43.78125" y="56.618182" style="stroke: #000000; stroke-width: 0.8"/>
      </g>
     </g>
     <g id="text_12">
      <!-- 0.8 -->
      <g transform="translate(20.878125 60.417401)scale(0.1 -0.1)">
       <use xlink:href="#DejaVuSans-30"/>
       <use xlink:href="#DejaVuSans-2e" x="63.623047"/>
       <use xlink:href="#DejaVuSans-38" x="95.410156"/>
      </g>
     </g>
    </g>
    <g id="ytick_6">
     <g id="line2d_12">
      <g>
       <use xlink:href="#mef8c61cfba" x="43.78125" y="17.083636" style="stroke: #000000; stroke-width: 0.8"/>
      </g>
     </g>
     <g id="text_13">
      <!-- 1.0 -->
      <g transform="translate(20.878125 20.882855)scale(0.1 -0.1)">
       <use xlink:href="#DejaVuSans-31"/>
       <use xlink:href="#DejaVuSans-2e" x="63.623047"/>
       <use xlink:href="#DejaVuSans-30" x="95.410156"/>
      </g>
     </g>
    </g>
    <g id="text_14">
     <!-- True Positive Rate -->
     <g transform="translate(14.798438 160.449687)rotate(-90)scale(0.1 -0.1)">
      <defs>
       <path id="DejaVuSans-54" d="M -19 4666 
L 3928 4666 
L 3928 4134 
L 2272 4134 
L 2272 0 
L 1638 0 
L 1638 4134 
L -19 4134 
L -19 4666 
z
" transform="scale(0.015625)"/>
       <path id="DejaVuSans-72" d="M 2631 2963 
Q 2534 3019 2420 3045 
Q 2306 3072 2169 3072 
Q 1681 3072 1420 2755 
Q 1159 2438 1159 1844 
L 1159 0 
L 581 0 
L 581 3500 
L 1159 3500 
L 1159 2956 
Q 1341 3275 1631 3429 
Q 1922 3584 2338 3584 
Q 2397 3584 2469 3576 
Q 2541 3569 2628 3553 
L 2631 2963 
z
" transform="scale(0.015625)"/>
       <path id="DejaVuSans-75" d="M 544 1381 
L 544 3500 
L 1119 3500 
L 1119 1403 
Q 1119 906 1312 657 
Q 1506 409 1894 409 
Q 2359 409 2629 706 
Q 2900 1003 2900 1516 
L 2900 3500 
L 3475 3500 
L 3475 0 
L 2900 0 
L 2900 538 
Q 2691 219 2414 64 
Q 2138 -91 1772 -91 
Q 1169 -91 856 284 
Q 544 659 544 1381 
z
M 1991 3584 
L 1991 3584 
z
" transform="scale(0.015625)"/>
      </defs>
      <use xlink:href="#DejaVuSans-54"/>
      <use xlink:href="#DejaVuSans-72" x="46.333984"/>
      <use xlink:href="#DejaVuSans-75" x="87.447266"/>
      <use xlink:href="#DejaVuSans-65" x="150.826172"/>
      <use xlink:href="#DejaVuSans-20" x="212.349609"/>
      <use xlink:href="#DejaVuSans-50" x="244.136719"/>
      <use xlink:href="#DejaVuSans-6f" x="300.814453"/>
      <use xlink:href="#DejaVuSans-73" x="361.996094"/>
      <use xlink:href="#DejaVuSans-69" x="414.095703"/>
      <use xlink:href="#DejaVuSans-74" x="441.878906"/>
      <use xlink:href="#DejaVuSans-69" x="481.087891"/>
      <use xlink:href="#DejaVuSans-76" x="508.871094"/>
      <use xlink:href="#DejaVuSans-65" x="568.050781"/>
      <use xlink:href="#DejaVuSans-20" x="629.574219"/>
      <use xlink:href="#DejaVuSans-52" x="661.361328"/>
      <use xlink:href="#DejaVuSans-61" x="728.59375"/>
      <use xlink:href="#DejaVuSans-74" x="789.873047"/>
      <use xlink:href="#DejaVuSans-65" x="829.082031"/>
     </g>
    </g>
   </g>
   <g id="line2d_13">
    <path d="M 58.999432 214.756364 
L 363.363068 17.083636 
" clip-path="url(#pddf05176b9)" style="fill: none; stroke-dasharray: 5.55,2.4; stroke-dashoffset: 0; stroke: #386df9; stroke-width: 1.5"/>
   </g>
   <g id="line2d_14">
    <path d="M 58.999432 214.756364 
L 58.999432 72.575163 
L 58.999432 53.539542 
L 58.999432 43.499123 
L 58.999432 37.956305 
L 58.999432 35.612485 
L 58.999432 34.187189 
L 58.999432 33.427031 
L 58.999432 33.236992 
L 58.999432 33.015279 
L 58.999432 32.951933 
L 58.999432 32.793566 
L 59.008317 32.73022 
L 59.008317 32.698547 
L 59.008317 32.603527 
L 59.008317 32.445161 
L 59.017201 32.445161 
L 59.017201 32.381814 
L 59.017201 32.350141 
L 59.026086 32.255121 
L 59.034971 32.191775 
L 59.034971 32.128428 
L 59.043855 32.065082 
L 59.061625 32.001735 
L 59.07051 31.875042 
L 59.088279 31.843369 
L 59.088279 31.811696 
L 59.106048 31.748349 
L 59.123818 31.716676 
L 59.150472 31.653329 
L 59.168241 31.653329 
L 59.194896 31.55831 
L 59.22155 31.526636 
L 59.265973 31.431617 
L 59.283743 31.399943 
L 59.328166 31.304924 
L 59.425898 31.304924 
L 59.50586 31.27325 
L 59.630246 31.019865 
L 59.736863 30.924845 
L 59.816825 30.798152 
L 59.896788 30.608112 
L 60.021174 30.544766 
L 60.136675 30.418073 
L 60.341024 30.228033 
L 60.572026 30.037994 
L 60.820798 29.847954 
L 61.140648 29.657915 
L 61.433843 29.562895 
L 61.904733 29.21449 
L 62.322315 28.897757 
L 62.873167 28.644371 
L 63.530636 28.390985 
L 64.507954 28.010906 
L 65.583005 27.694174 
L 67.093406 27.092382 
L 68.879233 26.648957 
L 70.958256 26.173858 
L 73.748057 25.698759 
L 77.177556 25.160314 
L 81.70876 24.368483 
L 87.999137 23.830038 
L 97.088199 22.689801 
L 112.769719 21.676257 
L 141.725001 20.567693 
L 206.521218 19.142397 
L 363.363068 17.083636 
" clip-path="url(#pddf05176b9)" style="fill: none; stroke: #12c8e6; stroke-width: 1.5; stroke-linecap: square"/>
    <defs>
     <path id="mf63401a371" d="M 0 1.5 
C 0.397805 1.5 0.77937 1.341951 1.06066 1.06066 
C 1.341951 0.77937 1.5 0.397805 1.5 0 
C 1.5 -0.397805 1.341951 -0.77937 1.06066 -1.06066 
C 0.77937 -1.341951 0.397805 -1.5 0 -1.5 
C -0.397805 -1.5 -0.77937 -1.341951 -1.06066 -1.06066 
C -1.341951 -0.77937 -1.5 -0.397805 -1.5 0 
C -1.5 0.397805 -1.341951 0.77937 -1.06066 1.06066 
C -0.77937 1.341951 -0.397805 1.5 0 1.5 
z
" style="stroke: #12c8e6"/>
    </defs>
    <g clip-path="url(#pddf05176b9)">
     <use xlink:href="#mf63401a371" x="58.999432" y="214.756364" style="fill: #12c8e6; stroke: #12c8e6"/>
     <use xlink:href="#mf63401a371" x="58.999432" y="72.575163" style="fill: #12c8e6; stroke: #12c8e6"/>
     <use xlink:href="#mf63401a371" x="58.999432" y="53.539542" style="fill: #12c8e6; stroke: #12c8e6"/>
     <use xlink:href="#mf63401a371" x="58.999432" y="43.499123" style="fill: #12c8e6; stroke: #12c8e6"/>
     <use xlink:href="#mf63401a371" x="58.999432" y="37.956305" style="fill: #12c8e6; stroke: #12c8e6"/>
     <use xlink:href="#mf63401a371" x="58.999432" y="35.612485" style="fill: #12c8e6; stroke: #12c8e6"/>
     <use xlink:href="#mf63401a371" x="58.999432" y="34.187189" style="fill: #12c8e6; stroke: #12c8e6"/>
     <use xlink:href="#mf63401a371" x="58.999432" y="33.427031" style="fill: #12c8e6; stroke: #12c8e6"/>
     <use xlink:href="#mf63401a371" x="58.999432" y="33.236992" style="fill: #12c8e6; stroke: #12c8e6"/>
     <use xlink:href="#mf63401a371" x="58.999432" y="33.015279" style="fill: #12c8e6; stroke: #12c8e6"/>
     <use xlink:href="#mf63401a371" x="58.999432" y="32.951933" style="fill: #12c8e6; stroke: #12c8e6"/>
     <use xlink:href="#mf63401a371" x="58.999432" y="32.793566" style="fill: #12c8e6; stroke: #12c8e6"/>
     <use xlink:href="#mf63401a371" x="59.008317" y="32.73022" style="fill: #12c8e6; stroke: #12c8e6"/>
     <use xlink:href="#mf63401a371" x="59.008317" y="32.698547" style="fill: #12c8e6; stroke: #12c8e6"/>
     <use xlink:href="#mf63401a371" x="59.008317" y="32.603527" style="fill: #12c8e6; stroke: #12c8e6"/>
     <use xlink:href="#mf63401a371" x="59.008317" y="32.445161" style="fill: #12c8e6; stroke: #12c8e6"/>
     <use xlink:href="#mf63401a371" x="59.017201" y="32.445161" style="fill: #12c8e6; stroke: #12c8e6"/>
     <use xlink:href="#mf63401a371" x="59.017201" y="32.381814" style="fill: #12c8e6; stroke: #12c8e6"/>
     <use xlink:href="#mf63401a371" x="59.017201" y="32.350141" style="fill: #12c8e6; stroke: #12c8e6"/>
     <use xlink:href="#mf63401a371" x="59.026086" y="32.255121" style="fill: #12c8e6; stroke: #12c8e6"/>
     <use xlink:href="#mf63401a371" x="59.034971" y="32.191775" style="fill: #12c8e6; stroke: #12c8e6"/>
     <use xlink:href="#mf63401a371" x="59.034971" y="32.128428" style="fill: #12c8e6; stroke: #12c8e6"/>
     <use xlink:href="#mf63401a371" x="59.043855" y="32.065082" style="fill: #12c8e6; stroke: #12c8e6"/>
     <use xlink:href="#mf63401a371" x="59.061625" y="32.001735" style="fill: #12c8e6; stroke: #12c8e6"/>
     <use xlink:href="#mf63401a371" x="59.07051" y="31.875042" style="fill: #12c8e6; stroke: #12c8e6"/>
     <use xlink:href="#mf63401a371" x="59.088279" y="31.843369" style="fill: #12c8e6; stroke: #12c8e6"/>
     <use xlink:href="#mf63401a371" x="59.088279" y="31.811696" style="fill: #12c8e6; stroke: #12c8e6"/>
     <use xlink:href="#mf63401a371" x="59.106048" y="31.748349" style="fill: #12c8e6; stroke: #12c8e6"/>
     <use xlink:href="#mf63401a371" x="59.123818" y="31.716676" style="fill: #12c8e6; stroke: #12c8e6"/>
     <use xlink:href="#mf63401a371" x="59.150472" y="31.653329" style="fill: #12c8e6; stroke: #12c8e6"/>
     <use xlink:href="#mf63401a371" x="59.168241" y="31.653329" style="fill: #12c8e6; stroke: #12c8e6"/>
     <use xlink:href="#mf63401a371" x="59.194896" y="31.55831" style="fill: #12c8e6; stroke: #12c8e6"/>
     <use xlink:href="#mf63401a371" x="59.22155" y="31.526636" style="fill: #12c8e6; stroke: #12c8e6"/>
     <use xlink:href="#mf63401a371" x="59.265973" y="31.431617" style="fill: #12c8e6; stroke: #12c8e6"/>
     <use xlink:href="#mf63401a371" x="59.283743" y="31.399943" style="fill: #12c8e6; stroke: #12c8e6"/>
     <use xlink:href="#mf63401a371" x="59.328166" y="31.304924" style="fill: #12c8e6; stroke: #12c8e6"/>
     <use xlink:href="#mf63401a371" x="59.425898" y="31.304924" style="fill: #12c8e6; stroke: #12c8e6"/>
     <use xlink:href="#mf63401a371" x="59.50586" y="31.27325" style="fill: #12c8e6; stroke: #12c8e6"/>
     <use xlink:href="#mf63401a371" x="59.630246" y="31.019865" style="fill: #12c8e6; stroke: #12c8e6"/>
     <use xlink:href="#mf63401a371" x="59.736863" y="30.924845" style="fill: #12c8e6; stroke: #12c8e6"/>
     <use xlink:href="#mf63401a371" x="59.816825" y="30.798152" style="fill: #12c8e6; stroke: #12c8e6"/>
     <use xlink:href="#mf63401a371" x="59.896788" y="30.608112" style="fill: #12c8e6; stroke: #12c8e6"/>
     <use xlink:href="#mf63401a371" x="60.021174" y="30.544766" style="fill: #12c8e6; stroke: #12c8e6"/>
     <use xlink:href="#mf63401a371" x="60.136675" y="30.418073" style="fill: #12c8e6; stroke: #12c8e6"/>
     <use xlink:href="#mf63401a371" x="60.341024" y="30.228033" style="fill: #12c8e6; stroke: #12c8e6"/>
     <use xlink:href="#mf63401a371" x="60.572026" y="30.037994" style="fill: #12c8e6; stroke: #12c8e6"/>
     <use xlink:href="#mf63401a371" x="60.820798" y="29.847954" style="fill: #12c8e6; stroke: #12c8e6"/>
     <use xlink:href="#mf63401a371" x="61.140648" y="29.657915" style="fill: #12c8e6; stroke: #12c8e6"/>
     <use xlink:href="#mf63401a371" x="61.433843" y="29.562895" style="fill: #12c8e6; stroke: #12c8e6"/>
     <use xlink:href="#mf63401a371" x="61.904733" y="29.21449" style="fill: #12c8e6; stroke: #12c8e6"/>
     <use xlink:href="#mf63401a371" x="62.322315" y="28.897757" style="fill: #12c8e6; stroke: #12c8e6"/>
     <use xlink:href="#mf63401a371" x="62.873167" y="28.644371" style="fill: #12c8e6; stroke: #12c8e6"/>
     <use xlink:href="#mf63401a371" x="63.530636" y="28.390985" style="fill: #12c8e6; stroke: #12c8e6"/>
     <use xlink:href="#mf63401a371" x="64.507954" y="28.010906" style="fill: #12c8e6; stroke: #12c8e6"/>
     <use xlink:href="#mf63401a371" x="65.583005" y="27.694174" style="fill: #12c8e6; stroke: #12c8e6"/>
     <use xlink:href="#mf63401a371" x="67.093406" y="27.092382" style="fill: #12c8e6; stroke: #12c8e6"/>
     <use xlink:href="#mf63401a371" x="68.879233" y="26.648957" style="fill: #12c8e6; stroke: #12c8e6"/>
     <use xlink:href="#mf63401a371" x="70.958256" y="26.173858" style="fill: #12c8e6; stroke: #12c8e6"/>
     <use xlink:href="#mf63401a371" x="73.748057" y="25.698759" style="fill: #12c8e6; stroke: #12c8e6"/>
     <use xlink:href="#mf63401a371" x="77.177556" y="25.160314" style="fill: #12c8e6; stroke: #12c8e6"/>
     <use xlink:href="#mf63401a371" x="81.70876" y="24.368483" style="fill: #12c8e6; stroke: #12c8e6"/>
     <use xlink:href="#mf63401a371" x="87.999137" y="23.830038" style="fill: #12c8e6; stroke: #12c8e6"/>
     <use xlink:href="#mf63401a371" x="97.088199" y="22.689801" style="fill: #12c8e6; stroke: #12c8e6"/>
     <use xlink:href="#mf63401a371" x="112.769719" y="21.676257" style="fill: #12c8e6; stroke: #12c8e6"/>
     <use xlink:href="#mf63401a371" x="141.725001" y="20.567693" style="fill: #12c8e6; stroke: #12c8e6"/>
     <use xlink:href="#mf63401a371" x="206.521218" y="19.142397" style="fill: #12c8e6; stroke: #12c8e6"/>
     <use xlink:href="#mf63401a371" x="363.363068" y="17.083636" style="fill: #12c8e6; stroke: #12c8e6"/>
    </g>
   </g>
   <g id="patch_3">
    <path d="M 43.78125 224.64 
L 43.78125 7.2 
" style="fill: none; stroke: #000000; stroke-width: 0.8; stroke-linejoin: miter; stroke-linecap: square"/>
   </g>
   <g id="patch_4">
    <path d="M 378.58125 224.64 
L 378.58125 7.2 
" style="fill: none; stroke: #000000; stroke-width: 0.8; stroke-linejoin: miter; stroke-linecap: square"/>
   </g>
   <g id="patch_5">
    <path d="M 43.78125 224.64 
L 378.58125 224.64 
" style="fill: none; stroke: #000000; stroke-width: 0.8; stroke-linejoin: miter; stroke-linecap: square"/>
   </g>
   <g id="patch_6">
    <path d="M 43.78125 7.2 
L 378.58125 7.2 
" style="fill: none; stroke: #000000; stroke-width: 0.8; stroke-linejoin: miter; stroke-linecap: square"/>
   </g>
   <g id="legend_1">
    <g id="patch_7">
     <path d="M 264.329688 219.64 
L 371.58125 219.64 
Q 373.58125 219.64 373.58125 217.64 
L 373.58125 189.28375 
Q 373.58125 187.28375 371.58125 187.28375 
L 264.329688 187.28375 
Q 262.329688 187.28375 262.329688 189.28375 
L 262.329688 217.64 
Q 262.329688 219.64 264.329688 219.64 
z
" style="fill: #ffffff; opacity: 0.8; stroke: #cccccc; stroke-linejoin: miter"/>
    </g>
    <g id="line2d_15">
     <path d="M 266.329688 195.382187 
L 276.329688 195.382187 
L 286.329688 195.382187 
" style="fill: none; stroke-dasharray: 5.55,2.4; stroke-dashoffset: 0; stroke: #386df9; stroke-width: 1.5"/>
    </g>
    <g id="text_15">
     <!-- No Skill -->
     <g transform="translate(294.329688 198.882187)scale(0.1 -0.1)">
      <defs>
       <path id="DejaVuSans-4e" d="M 628 4666 
L 1478 4666 
L 3547 763 
L 3547 4666 
L 4159 4666 
L 4159 0 
L 3309 0 
L 1241 3903 
L 1241 0 
L 628 0 
L 628 4666 
z
" transform="scale(0.015625)"/>
       <path id="DejaVuSans-53" d="M 3425 4513 
L 3425 3897 
Q 3066 4069 2747 4153 
Q 2428 4238 2131 4238 
Q 1616 4238 1336 4038 
Q 1056 3838 1056 3469 
Q 1056 3159 1242 3001 
Q 1428 2844 1947 2747 
L 2328 2669 
Q 3034 2534 3370 2195 
Q 3706 1856 3706 1288 
Q 3706 609 3251 259 
Q 2797 -91 1919 -91 
Q 1588 -91 1214 -16 
Q 841 59 441 206 
L 441 856 
Q 825 641 1194 531 
Q 1563 422 1919 422 
Q 2459 422 2753 634 
Q 3047 847 3047 1241 
Q 3047 1584 2836 1778 
Q 2625 1972 2144 2069 
L 1759 2144 
Q 1053 2284 737 2584 
Q 422 2884 422 3419 
Q 422 4038 858 4394 
Q 1294 4750 2059 4750 
Q 2388 4750 2728 4690 
Q 3069 4631 3425 4513 
z
" transform="scale(0.015625)"/>
       <path id="DejaVuSans-6b" d="M 581 4863 
L 1159 4863 
L 1159 1991 
L 2875 3500 
L 3609 3500 
L 1753 1863 
L 3688 0 
L 2938 0 
L 1159 1709 
L 1159 0 
L 581 0 
L 581 4863 
z
" transform="scale(0.015625)"/>
      </defs>
      <use xlink:href="#DejaVuSans-4e"/>
      <use xlink:href="#DejaVuSans-6f" x="74.804688"/>
      <use xlink:href="#DejaVuSans-20" x="135.986328"/>
      <use xlink:href="#DejaVuSans-53" x="167.773438"/>
      <use xlink:href="#DejaVuSans-6b" x="231.25"/>
      <use xlink:href="#DejaVuSans-69" x="289.160156"/>
      <use xlink:href="#DejaVuSans-6c" x="316.943359"/>
      <use xlink:href="#DejaVuSans-6c" x="344.726562"/>
     </g>
    </g>
    <g id="line2d_16">
     <path d="M 266.329688 210.060312 
L 276.329688 210.060312 
L 286.329688 210.060312 
" style="fill: none; stroke: #12c8e6; stroke-width: 1.5; stroke-linecap: square"/>
     <g>
      <use xlink:href="#mf63401a371" x="276.329688" y="210.060312" style="fill: #12c8e6; stroke: #12c8e6"/>
     </g>
    </g>
    <g id="text_16">
     <!-- Random Forest -->
     <g transform="translate(294.329688 213.560312)scale(0.1 -0.1)">
      <defs>
       <path id="DejaVuSans-6e" d="M 3513 2113 
L 3513 0 
L 2938 0 
L 2938 2094 
Q 2938 2591 2744 2837 
Q 2550 3084 2163 3084 
Q 1697 3084 1428 2787 
Q 1159 2491 1159 1978 
L 1159 0 
L 581 0 
L 581 3500 
L 1159 3500 
L 1159 2956 
Q 1366 3272 1645 3428 
Q 1925 3584 2291 3584 
Q 2894 3584 3203 3211 
Q 3513 2838 3513 2113 
z
" transform="scale(0.015625)"/>
       <path id="DejaVuSans-64" d="M 2906 2969 
L 2906 4863 
L 3481 4863 
L 3481 0 
L 2906 0 
L 2906 525 
Q 2725 213 2448 61 
Q 2172 -91 1784 -91 
Q 1150 -91 751 415 
Q 353 922 353 1747 
Q 353 2572 751 3078 
Q 1150 3584 1784 3584 
Q 2172 3584 2448 3432 
Q 2725 3281 2906 2969 
z
M 947 1747 
Q 947 1113 1208 752 
Q 1469 391 1925 391 
Q 2381 391 2643 752 
Q 2906 1113 2906 1747 
Q 2906 2381 2643 2742 
Q 2381 3103 1925 3103 
Q 1469 3103 1208 2742 
Q 947 2381 947 1747 
z
" transform="scale(0.015625)"/>
       <path id="DejaVuSans-6d" d="M 3328 2828 
Q 3544 3216 3844 3400 
Q 4144 3584 4550 3584 
Q 5097 3584 5394 3201 
Q 5691 2819 5691 2113 
L 5691 0 
L 5113 0 
L 5113 2094 
Q 5113 2597 4934 2840 
Q 4756 3084 4391 3084 
Q 3944 3084 3684 2787 
Q 3425 2491 3425 1978 
L 3425 0 
L 2847 0 
L 2847 2094 
Q 2847 2600 2669 2842 
Q 2491 3084 2119 3084 
Q 1678 3084 1418 2786 
Q 1159 2488 1159 1978 
L 1159 0 
L 581 0 
L 581 3500 
L 1159 3500 
L 1159 2956 
Q 1356 3278 1631 3431 
Q 1906 3584 2284 3584 
Q 2666 3584 2933 3390 
Q 3200 3197 3328 2828 
z
" transform="scale(0.015625)"/>
      </defs>
      <use xlink:href="#DejaVuSans-52"/>
      <use xlink:href="#DejaVuSans-61" x="67.232422"/>
      <use xlink:href="#DejaVuSans-6e" x="128.511719"/>
      <use xlink:href="#DejaVuSans-64" x="191.890625"/>
      <use xlink:href="#DejaVuSans-6f" x="255.367188"/>
      <use xlink:href="#DejaVuSans-6d" x="316.548828"/>
      <use xlink:href="#DejaVuSans-20" x="413.960938"/>
      <use xlink:href="#DejaVuSans-46" x="445.748047"/>
      <use xlink:href="#DejaVuSans-6f" x="499.642578"/>
      <use xlink:href="#DejaVuSans-72" x="560.824219"/>
      <use xlink:href="#DejaVuSans-65" x="599.6875"/>
      <use xlink:href="#DejaVuSans-73" x="661.210938"/>
      <use xlink:href="#DejaVuSans-74" x="713.310547"/>
     </g>
    </g>
   </g>
  </g>
 </g>
 <defs>
  <clipPath id="pddf05176b9">
   <rect x="43.78125" y="7.2" width="334.8" height="217.44"/>
  </clipPath>
 </defs>
</svg>
